PathFileType	4	(X/Y/Z)	56_1_8_p0_0-284_filt_butterworth.trc
DataRate	CameraRate	NumFrames	NumMarkers	Units	OrigDataRate	OrigDataStartFrame	OrigNumFrames
60.0	60.0	7	27	m	60.0	142	284
Frame#	Time	RHip			RKnee			RAnkle			RBigToe			RSmallToe			RHeel			LHip			LKnee			LAnkle			LBigToe			LSmallToe			LHeel			Neck			Head			Nose			RShoulder			RElbow			RWrist			RThumb			RIndex			RPinky			LShoulder			LElbow			LWrist			LThumb			LIndex			LPinky			
		X1	Y1	Z1	X2	Y2	Z2	X3	Y3	Z3	X4	Y4	Z4	X5	Y5	Z5	X6	Y6	Z6	X7	Y7	Z7	X8	Y8	Z8	X9	Y9	Z9	X10	Y10	Z10	X11	Y11	Z11	X12	Y12	Z12	X13	Y13	Z13	X14	Y14	Z14	X15	Y15	Z15	X16	Y16	Z16	X17	Y17	Z17	X18	Y18	Z18	X19	Y19	Z19	X20	Y20	Z20	X21	Y21	Z21	X22	Y22	Z22	X23	Y23	Z23	X24	Y24	Z24	X25	Y25	Z25	X26	Y26	Z26	X27	Y27	Z27	
142	2.3666666666666667	0.4386266794890306	0.671669049602656	0.29603485422945164	0.4267736492233543	0.7991961239872865	0.6783411203382909	0.4739318604560353	1.0713777657798247	1.0791566173570128	0.39373599808071436	0.8560684596791357	1.1410254194963751	0.4702306411285255	0.9123955515198708	1.1582186631768032	0.49861204726925257	1.1560548566901496	1.1169530011618019	0.2391759852206769	0.7421731685537498	0.2619511752695804	0.28490420769076374	0.9254827382139418	0.6565955682798365	0.326898647389553	1.1076878504244212	1.0410557925635968	0.2487004010136142	0.918467488065505	1.1248543875976678	0.2304978662718539	0.9994764545894357	1.1296626199682513	0.3602236747590227	1.1739460006094256	1.0965775213414115	0.3516946210592598	0.5424874505126207	-0.23948240939562096	0.32809627639395045	0.38560191129706944	-0.44711018338476916	0.3045612915331939	0.38415351903246264	-0.3020859972711273	0.49445083594723227	0.5068490226244105	-0.11639866901856555	0.5590631337696219	0.6341695051285703	0.13889967427344108	0.5564026593814599	0.6786641312718391	0.39124726407396976	0.5065591279769984	0.661356217145646	0.5144079129636537	0.5271280381864282	0.6536595340006366	0.5230730437397945	0.5631941536279091	0.70589803345135	0.5215725270905446	0.1961031478874363	0.5963938959367306	-0.18679557330300955	0.08248051463210229	0.5409471172318824	0.022440581078196416	0.26991215997640294	0.4602401795669004	0.0670661153681574	0.3815515862057372	0.46533984264095213	0.10233858321161321	0.39246545362803115	0.46763072263515193	0.12164920987993151	0.32147574683398894	0.4392843682207951	0.1603124099291208
143	2.3833333333333333	0.43837213390601953	0.667232977580721	0.2950932388630141	0.42674952452024023	0.7992271005280924	0.6784003640016785	0.4739430302548929	1.0717553558919801	1.0791362409719736	0.39439348065173224	0.8564500225203704	1.1411950934626172	0.47041005596850416	0.9125521606881466	1.1580973060310402	0.49903607031465697	1.1555018085112978	1.1169457449365223	0.23933545240558482	0.7426231429571862	0.2629306104550269	0.28476449761959705	0.9259573700299079	0.6576494234209576	0.326458041286528	1.1067613104125056	1.0408275562358242	0.24902359878036434	0.9200780603775074	1.1247230358093636	0.2304993755450636	0.9995070994693893	1.1296591801598899	0.36105723188493616	1.175097295797195	1.0977968892767862	0.35170188710954486	0.5424182842004374	-0.23947656925841415	0.32823734727819903	0.3873724522364547	-0.4466735944739555	0.3062975172667027	0.3862775746733972	-0.30391265195118117	0.49447882647397073	0.5068829780587485	-0.1163477948904178	0.5598166597225358	0.639462257829588	0.13978672669369957	0.5558119226698627	0.6741572811131646	0.3912350558630174	0.5082368081841967	0.6603140704617694	0.5155455672877777	0.5287490442597221	0.6435457181756998	0.5249799819486904	0.5644474465202132	0.7012764148351085	0.5230893760492812	0.19608377439842128	0.5952097916788259	-0.18690893140219247	0.08724271182954316	0.5419617750339633	0.027670684818905274	0.2817997453637684	0.4652936243830247	0.0778016716891327	0.39227524780582673	0.4631510861083564	0.10894662041672278	0.3990466264285875	0.4591835799366727	0.12281528121466886	0.33487577883483766	0.44424798182020736	0.16480972287910114
144	2.4	0.4380489329102344	0.662485170667567	0.29592647881827183	0.42673817107702205	0.7992674794946739	0.6785034194335862	0.4741668976322975	1.0720794008752559	1.0792209203219558	0.39600531116171267	0.8573183157684232	1.141612738219435	0.4707414438470522	0.9127588093362831	1.1577342296028994	0.499541962804218	1.155713092085674	1.1173717343320595	0.24079209258609105	0.7453652253029577	0.26602902956652597	0.2845849215590459	0.9265989534702714	0.659075356175426	0.32531608180014654	1.1057164499393233	1.0404743901115123	0.24944008484606606	0.9207707567604461	1.1248489379801898	0.23051377972479242	0.9995686093096535	1.1296927317432683	0.36099149404405645	1.1760621550569297	1.0994918870800856	0.3516320878729805	0.5408652171951736	-0.23903872014911637	0.32832778654140626	0.3907143032950282	-0.44659810472369754	0.30698651482836836	0.38697853266762444	-0.3050230956250848	0.4945531517683161	0.5069456621017674	-0.11633575325799804	0.5603530081045436	0.6435508187396003	0.1410490239128266	0.557186790473776	0.6712243973088319	0.3913956918072235	0.510181079553699	0.6590086607564891	0.51596392923365	0.5299007020478731	0.6290259545736743	0.5269407474821914	0.5632626529950917	0.6911353709971089	0.5245717513703463	0.19537114134125722	0.5926859532325252	-0.18604700265871474	0.09193597149409634	0.5426808330523984	0.033839804243093616	0.2923358597117884	0.4604412446368466	0.08646289877685377	0.4000998796708416	0.4501076341807029	0.11131596241161854	0.403236272145447	0.4338323807377862	0.12119540096449131	0.34952526432353553	0.442205972019408	0.1643838588259395
145	2.4166666666666665	0.4383928081595961	0.6617872640519812	0.2971606793793761	0.4267276400345401	0.7993007631299975	0.6786194075976107	0.4742885044019891	1.070532522664274	1.0793452905846221	0.3981105882117808	0.858394703633917	1.142157893101562	0.4713542409671522	0.9129589835340939	1.157571108722822	0.49974930334263973	1.156401667854302	1.118568763781514	0.24347669269342515	0.7505047659630757	0.26973266416687636	0.28444286034487876	0.9271093785609669	0.6602232107058675	0.3237879161635637	1.1050776807404985	1.0401505487999614	0.24989155424241233	0.9216620594010967	1.1250471499975048	0.2305240149142639	0.9996132034198806	1.1297782659924787	0.3601949435575457	1.1755981100299777	1.1006609591825858	0.35145147070191296	0.5370263549117191	-0.23808442464008212	0.3284985229635169	0.3949473541577705	-0.44736531189375806	0.3068973301882497	0.38694580630342085	-0.30530128193594497	0.4946677243816119	0.5070734023042864	-0.11660756050001593	0.5605386484292668	0.64519102635114	0.1413626449824324	0.5588246375465554	0.6697993187205766	0.3915815464069617	0.5112398569280769	0.6547908778142411	0.5158421275506746	0.5303052532768946	0.615244327140448	0.5278050027796256	0.5597838232214923	0.6768894945478703	0.525031185723459	0.19362180369769638	0.5894813365072292	-0.18442664112571946	0.09742787090787029	0.5442293496856361	0.041054346025034986	0.29933845571070394	0.4445283345546055	0.09181680253435398	0.4024294239018198	0.4245010528959907	0.10607193933678302	0.40358059071658436	0.3973305039215071	0.1150938519593739	0.36038668493263876	0.424931483768697	0.15744663341820087
146	2.433333333333333	0.43965264178576346	0.6678426264213577	0.29765733550811646	0.42670966871937266	0.7992957787018538	0.6787165481278505	0.47426264146422575	1.0660189991363116	1.0795361779063333	0.39959324065172225	0.8591222770964697	1.1425446458576285	0.47210623771108895	0.9130306769327956	1.1580449065209024	0.4996202437130031	1.1572895303334025	1.120209332027238	0.2458850138061476	0.755536216547918	0.271725292397057	0.28437881371202584	0.9273358397177991	0.6607504459045914	0.3226259491177349	1.1048587873637696	1.040116630733084	0.2500557688032258	0.9223174837290279	1.125106028608526	0.23051979937186265	0.999581345846006	1.1298808768506234	0.3595278663705446	1.1746277742166957	1.1009949988852605	0.3512113096556822	0.5319648321166217	-0.2369399229233778	0.3292270858425102	0.39870218137067426	-0.4489538588010166	0.3064445194147142	0.38686276824857696	-0.3052009677037235	0.4947841557333845	0.5072046522788021	-0.11731270471666505	0.5603427188956842	0.6451580911829154	0.13922660909639467	0.5596472355482366	0.6694653387155822	0.39166407689774385	0.510964876617159	0.6471409294921013	0.515339459548738	0.5300706358140983	0.6053641822017319	0.5266805883694726	0.5564823245883466	0.664514677654968	0.523942056931648	0.19135744377837496	0.5873145812385864	-0.18265387383421544	0.10527423106694345	0.548892026963806	0.04907728206856154	0.30160772909449685	0.4221892088717509	0.09303152658482039	0.3998390438476799	0.392510915785476	0.09169690588454155	0.40034811345801624	0.3626723123340937	0.10210466111423286	0.362945551348183	0.39284767774252516	0.14295236032542383
147	2.45	0.4410990892461971	0.6773612499276374	0.29628383623266014	0.42668514947279823	0.7992377757550376	0.6787918586833295	0.4741712152332127	1.0598103611516518	1.0797689371356514	0.39959966117657975	0.8590970424454871	1.1425557871867038	0.4721282240878015	0.9126198643580777	1.1586838181362447	0.49948447920504524	1.1580327498025627	1.1215144176843825	0.24638841229567543	0.7571080604379762	0.27041547841186764	0.2843783985518041	0.927333331567279	0.660721223608978	0.32215941124153047	1.104884605747134	1.0407495004739151	0.2494136083945448	0.9209793392568458	1.1250136203182057	0.2305002999785492	0.9994875742393983	1.1298528863293822	0.35916754034941	1.1738287432914951	1.1008819395725724	0.35102069720475826	0.5280565011264631	-0.23614117932219833	0.3308625987283796	0.4016898371565813	-0.45090219274767007	0.30604484437414087	0.38686751698756894	-0.30523471719991485	0.4948501426994088	0.5072439000053593	-0.11822956138181145	0.5597636248655402	0.6446500085286825	0.13516964296353137	0.5597540506720731	0.6695984199070723	0.39151956780655495	0.5098152237459945	0.6378234367963752	0.5143831637437399	0.5293770619674215	0.5981528112596283	0.524283931012859	0.5547648702853438	0.6558067631150925	0.5217594417983877	0.18965350769724687	0.5869722479007271	-0.18105934570051346	0.1176483466706095	0.5594847208916934	0.05651811445872398	0.29967255949773436	0.40171285615974883	0.08926086330863012	0.3929827119878326	0.36411894428117997	0.07067475937637918	0.3930432230898024	0.33723395873388634	0.0818253951075405	0.3562541414596489	0.35948613414817165	0.12107362340094761
148	2.466666666666667	0.4415152390995554	0.683688942937149	0.292507980794368	0.4266615908080619	0.7991584147617506	0.6788874489194444	0.4741067313512045	1.0548865802255418	1.0799541691716195	0.39809812973119507	0.8582940895207111	1.142185855763673	0.4706563469908317	0.9112226833673716	1.1584621760269478	0.499527796629531	1.1583800638415074	1.1222358327271744	0.24511831351803798	0.7549575527457132	0.2662650267635664	0.28444056047987276	0.9271425785744476	0.6601528756733914	0.32213499220701836	1.105092834010438	1.0422229108535312	0.24804092513671494	0.9165780831852838	1.1249236829294333	0.23048163613055786	0.9994478746756593	1.1293841109069573	0.3585765094894788	1.1726185252544408	1.1007834333150197	0.3509294207675743	0.5264207209870804	-0.23586362999056304	0.3329495590133527	0.40423721733846996	-0.4525756222795203	0.3061370718991569	0.3868140985346345	-0.30576199408462085	0.49485171465459243	0.5071891805034068	-0.11897431795208638	0.5592536988601289	0.6442505434981884	0.1311499149773916	0.5595985584950515	0.6697319380913983	0.3908983128508658	0.5086026181632093	0.6296786092652727	0.5128596532848295	0.5285177862498479	0.5924093132997595	0.5226005283718571	0.5539733577902748	0.6473070368941924	0.5194020206337717	0.18894256043871774	0.5876927620709269	-0.17964394529397756	0.13481786984340463	0.5769250077067231	0.06210706305276782	0.2955192085630207	0.39076491648940437	0.07963253702359174	0.3801801369677645	0.3462871060788035	0.04829681768610512	0.3801222139611516	0.3209917981132803	0.05677295403243313	0.3431382185563335	0.34010193330934796	0.09398324789536357
